<?xml version="1.0" encoding="UTF-8"?>
<svg width="16px" height="18px" viewBox="0 0 16 18" version="1.1" xmlns="http://www.w3.org/2000/svg" xmlns:xlink="http://www.w3.org/1999/xlink">
    <!-- Generator: Sketch 52.6 (67491) - http://www.bohemiancoding.com/sketch -->
    <title>home icon</title>
    <desc>Created with Sketch.</desc>
    <g id="Design" stroke="none" stroke-width="1" fill="none" fill-rule="evenodd">
        <g id="home" transform="translate(-37.000000, -604.000000)" fill="#373F43" fill-rule="nonzero">
            <g id="footer" transform="translate(-14.000000, 587.000000)">
                <path d="M51.8739871,23.3720338 L57.5826581,17.6380225 C58.3619751,16.8552461 59.6283019,16.8524418 60.4110783,17.6317588 C60.4131708,17.633842 60.4152587,17.6359299 60.4173419,17.6380225 L66.1260129,23.3720338 C66.6857506,23.9342561 67,24.6953036 67,25.4886511 L67,32.9450876 C67,34.0496571 66.1045695,34.9450876 65,34.9450876 L62.5659467,34.9450876 C62.0136619,34.9450876 61.5659467,34.4973723 61.5659467,33.9450876 L61.5659467,29.3314477 C61.5659467,28.7791629 61.1182314,28.3314477 60.5659467,28.3314477 L57.4986213,28.3314477 C56.9463366,28.3314477 56.4986213,28.7791629 56.4986213,29.3314477 L56.4986213,33.9450876 C56.4986213,34.4973723 56.0509061,34.9450876 55.4986213,34.9450876 L53,34.9450876 C51.8954305,34.9450876 51,34.0496571 51,32.9450876 L51,25.4886511 C51,24.6953036 51.3142494,23.9342561 51.8739871,23.3720338 Z" id="home-icon"></path>
            </g>
        </g>
    </g>
</svg>