<?xml version="1.0" encoding="UTF-8"?>
<svg width="16px" height="18px" viewBox="0 0 16 18" version="1.1" xmlns="http://www.w3.org/2000/svg" xmlns:xlink="http://www.w3.org/1999/xlink">
    <!-- Generator: Sketch 52.5 (67469) - http://www.bohemiancoding.com/sketch -->
    <title>Combined Shape</title>
    <desc>Created with Sketch.</desc>
    <g id="Design" stroke="none" stroke-width="1" fill="none" fill-rule="evenodd">
        <g id="maps---post-detail" transform="translate(-36.000000, -604.000000)" fill="#444444" fill-rule="nonzero">
            <g id="footer" transform="translate(-24.000000, 0.000000)">
                <path d="M60.8739871,610.372034 L66.5826581,604.638022 C67.3619751,603.855246 68.6283019,603.852442 69.4110783,604.631759 C69.4131708,604.633842 69.4152587,604.63593 69.4173419,604.638022 L75.1260129,610.372034 C75.6857506,610.934256 76,611.695304 76,612.488651 L76,619.945088 C76,621.049657 75.1045695,621.945088 74,621.945088 L70.5258789,621.945088 C69.9735942,621.945088 69.5258789,621.497372 69.5258789,620.945088 L69.5258789,616.042969 C69.5258789,615.766826 69.3020213,615.542969 69.0258789,615.542969 L67.0345459,615.542969 C66.7584035,615.542969 66.5345459,615.766826 66.5345459,616.042969 L66.5345459,620.945088 C66.5345459,621.497372 66.0868306,621.945088 65.5345459,621.945088 L62,621.945088 C60.8954305,621.945088 60,621.049657 60,619.945088 L60,612.488651 C60,611.695304 60.3142494,610.934256 60.8739871,610.372034 Z M62.1176563,611.223214 C61.742055,611.598357 61.5310059,612.107435 61.5310059,612.638291 L61.5310059,619.548828 C61.5310059,620.101113 61.9787211,620.548828 62.5310059,620.548828 L64.5921631,620.548828 C64.8683055,620.548828 65.0921631,620.32497 65.0921631,620.048828 L65.0921631,615.039551 C65.0921631,614.487266 65.5398783,614.039551 66.0921631,614.039551 L70.0229492,614.039551 C70.575234,614.039551 71.0229492,614.487266 71.0229492,615.039551 L71.0229492,620.048828 C71.0229492,620.32497 71.2468068,620.548828 71.5229492,620.548828 L73.5213623,620.548828 C74.0736471,620.548828 74.5213623,620.101113 74.5213623,619.548828 L74.5213623,612.638291 C74.5213623,612.107435 74.3103131,611.598357 73.9347119,611.223214 L68.7328589,606.027712 C68.3424336,605.637763 67.7099346,605.637763 67.3195093,606.027712 L62.1176563,611.223214 Z" id="Combined-Shape"></path>
            </g>
        </g>
    </g>
</svg>