<?xml version="1.0" encoding="UTF-8"?>
<svg width="19px" height="17px" viewBox="0 0 19 17" version="1.1" xmlns="http://www.w3.org/2000/svg" xmlns:xlink="http://www.w3.org/1999/xlink">
    <!-- Generator: Sketch 52.5 (67469) - http://www.bohemiancoding.com/sketch -->
    <title>Combined Shape</title>
    <desc>Created with Sketch.</desc>
    <g id="Design" stroke="none" stroke-width="1" fill="none" fill-rule="evenodd">
        <g id="maps---post-detail" transform="translate(-216.000000, -607.000000)" fill="#444444" fill-rule="nonzero">
            <g id="footer" transform="translate(-24.000000, 0.000000)">
                <path d="M250.061279,623.991749 C244.009359,619.25039 240.983398,615.566007 240.983398,612.938599 C240.983398,611.801342 240.983398,608.530884 243.985107,607.410938 C246.074382,606.631424 248.09546,607.307938 250.04834,609.440479 C252.046016,607.329236 254.027461,606.652722 255.992676,607.410938 C259.09668,608.608521 259.007812,611.864624 259.007812,612.938599 C259.007812,615.678589 256.025635,619.362972 250.061279,623.991749 Z M250.04158,622.193604 C255.051539,618.071452 257.556519,615.014445 257.556519,613.022583 C257.556519,611.042847 257.556519,609.3927 255.307373,608.648193 C253.69504,608.114483 251.939775,609.045676 250.04158,611.441772 C248.145736,609.060684 246.420043,608.129491 244.864502,608.648193 C242.515015,609.431641 242.515015,611.026978 242.515015,613.022583 C242.515015,615.027547 245.02387,618.084554 250.04158,622.193604 Z" id="Combined-Shape"></path>
            </g>
        </g>
    </g>
</svg>