<?xml version="1.0" encoding="UTF-8"?>
<svg width="13px" height="18px" viewBox="0 0 13 18" version="1.1" xmlns="http://www.w3.org/2000/svg" xmlns:xlink="http://www.w3.org/1999/xlink">
    <!-- Generator: Sketch 52.5 (67469) - http://www.bohemiancoding.com/sketch -->
    <title>profile icon</title>
    <desc>Created with Sketch.</desc>
    <g id="Design" stroke="none" stroke-width="1" fill="none" fill-rule="evenodd">
        <g id="maps---post-detail" transform="translate(-273.000000, -605.000000)" fill="#444444" fill-rule="nonzero">
            <g id="footer" transform="translate(-24.000000, 0.000000)">
                <g id="profile-icon" transform="translate(297.000000, 605.000000)">
                    <path d="M3,9.28571429 L10,9.28571429 C11.6568542,9.28571429 13,10.62886 13,12.2857143 L13,14.6428571 C13,16.2997114 11.6568542,17.6428571 10,17.6428571 L3,17.6428571 C1.34314575,17.6428571 2.02906125e-16,16.2997114 0,14.6428571 L0,12.2857143 C-2.02906125e-16,10.62886 1.34314575,9.28571429 3,9.28571429 Z M3.00396729,10.677002 C2.17554016,10.677002 1.50396729,11.3485748 1.50396729,12.177002 L1.50396729,14.7667236 C1.50396729,15.5951508 2.17554016,16.2667236 3.00396729,16.2667236 L9.99505615,16.2667236 C10.8234833,16.2667236 11.4950562,15.5951508 11.4950562,14.7667236 L11.4950562,12.177002 C11.4950562,11.3485748 10.8234833,10.677002 9.99505615,10.677002 L3.00396729,10.677002 Z" id="Combined-Shape"></path>
                    <path d="M6.5,7.42857143 C4.44865664,7.42857143 2.78571429,5.76562907 2.78571429,3.71428571 C2.78571429,1.66294236 4.44865664,0 6.5,0 C8.55134336,0 10.2142857,1.66294236 10.2142857,3.71428571 C10.2142857,5.76562907 8.55134336,7.42857143 6.5,7.42857143 Z M6.49999979,6.03753662 C7.74267535,6.03753662 8.76257324,4.91821289 8.76257324,3.7142855 C8.76257324,2.51035811 7.75903277,1.53863525 6.49999979,1.53863525 C5.2409668,1.53863525 4.22454834,2.41424561 4.22454834,3.7142855 C4.22454834,5.01432539 5.25732422,6.03753662 6.49999979,6.03753662 Z" id="Combined-Shape"></path>
                </g>
            </g>
        </g>
    </g>
</svg>