<?xml version="1.0" encoding="UTF-8"?>
<svg width="16px" height="15px" viewBox="0 0 16 15" version="1.1" xmlns="http://www.w3.org/2000/svg" xmlns:xlink="http://www.w3.org/1999/xlink">
    <!-- Generator: Sketch 52.5 (67469) - http://www.bohemiancoding.com/sketch -->
    <title>Combined Shape</title>
    <desc>Created with Sketch.</desc>
    <g id="Design" stroke="none" stroke-width="1" fill="none" fill-rule="evenodd">
        <g id="home" transform="translate(-43.000000, -311.000000)" fill="#C8C8C8" fill-rule="nonzero">
            <g id="post" transform="translate(21.000000, 127.000000)">
                <g id="post-controls" transform="translate(22.000000, 183.000000)">
                    <path d="M7.56697204,15.0820273 C2.52232401,11.1298135 0,8.05865332 0,5.86854683 C6.22054807e-17,4.92057355 0,2.1944454 2.50210906,1.26090186 C4.2436483,0.611128943 5.92834068,1.1750447 7.55618621,2.95264913 C9.22137211,1.19279775 10.8730287,0.628881995 12.5111558,1.26090186 C15.098534,2.25916038 15.0244577,4.97332293 15.0244577,5.86854683 C15.0244577,8.15249721 12.5386292,11.2236574 7.56697204,15.0820273 Z M7.5505511,13.5831626 C11.7266603,10.1470957 13.814715,7.59889244 13.814715,5.93855297 C13.814715,4.28832097 13.814715,2.91282239 11.9399138,2.29223015 C10.5959349,1.84734941 9.13281399,2.62355608 7.5505511,4.62085015 C5.97024868,2.63606652 4.53177781,1.85985985 3.23513849,2.29223015 C1.27669631,2.94528163 1.27669631,4.27509307 1.27669631,5.93855297 C1.27669631,7.60981394 3.36798124,10.1580172 7.5505511,13.5831626 Z" id="Combined-Shape"></path>
                </g>
            </g>
        </g>
    </g>
</svg>